<?xml version="1.0" encoding="UTF-8"?>
<svg xmlns="http://www.w3.org/2000/svg" version="1.1" width="2048" height="2048" style="background: transparent;">

<path d="M0 0 C31.66972404 27.69422354 52.12260979 66.81721671 55.64193726 108.87774658 C56.64236118 123.85122406 56.70708885 138.85696344 56.88483763 153.85775089 C56.91446664 156.33060495 56.94556986 158.80343673 56.97703934 161.27626801 C57.30584892 187.27944215 57.4790114 213.28217748 57.57567883 239.28716087 C57.58937082 242.92877203 57.60398094 246.5703793 57.6185534 250.21198702 C57.68105472 265.89943739 57.74179047 281.58687416 57.77636719 297.27441406 C57.79484008 305.62393165 57.82384015 313.9733447 57.8643719 322.32278514 C57.88504825 326.66855673 57.90084311 331.01420017 57.90317917 335.3600235 C57.91613083 353.98265328 58.25255569 372.26664654 61.375 390.6875 C61.53620205 391.64460625 61.6974041 392.60171249 61.86349106 393.58782196 C63.00281754 400.11332149 64.64283732 406.15695141 66.9375 412.375 C67.28756104 413.32616699 67.63762207 414.27733398 67.99829102 415.25732422 C74.7589632 433.04541721 85.29829614 447.9139185 98.375 461.6875 C98.84389648 462.18894531 99.31279297 462.69039062 99.79589844 463.20703125 C118.72844464 483.3527309 143.55410032 498.62029636 170.375 505.6875 C171.35726562 505.96207031 172.33953125 506.23664062 173.3515625 506.51953125 C212.06061173 516.88620275 256.1682463 509.66314784 290.9375 490.1875 C301.3915631 484.14723134 310.60868163 476.97996332 319.375 468.6875 C320.17550781 467.95144531 320.97601562 467.21539063 321.80078125 466.45703125 C338.20932743 450.83358297 349.85597615 430.94000904 357.375 409.6875 C357.94154297 408.1096875 357.94154297 408.1096875 358.51953125 406.5 C363.82031956 390.61748821 365.52662726 373.57828743 365.51976013 356.90788269 C365.52328698 355.88086772 365.52681382 354.85385275 365.53044754 353.79571611 C365.54104584 350.38488348 365.54480002 346.97407887 365.54858398 343.56323242 C365.55489641 341.10472498 365.56166297 338.64621867 365.56884766 336.18771362 C365.58347402 330.90592327 365.59529646 325.62413787 365.60479546 320.34233665 C365.61874887 312.6819605 365.63994965 305.02161646 365.66322399 297.36126355 C365.70107483 284.89848343 365.73604744 272.43569748 365.76782227 259.97290039 C365.76972276 259.2282662 365.77162325 258.48363201 365.77358133 257.71643315 C365.8003585 247.1718076 365.82425157 236.62717749 365.84696633 226.08254252 C365.84856363 225.34124343 365.85016094 224.59994434 365.85180664 223.83618164 C365.85340011 223.09580059 365.85499357 222.35541953 365.85663532 221.59260269 C365.88353101 209.18684836 365.91798288 196.78112825 365.95846039 184.37541085 C365.98304796 176.74881522 366.00147814 169.1222561 366.011616 161.49562732 C366.01997567 155.62845599 366.03856103 149.76134341 366.06067657 143.894207 C366.06807245 141.50879908 366.07222825 139.12337825 366.07267189 136.73795891 C366.08531626 99.08250149 366.08531626 99.08250149 370.625 81.75 C370.84115967 80.88995361 371.05731934 80.02990723 371.2800293 79.14379883 C373.31649886 71.35148946 376.01580136 64.01738262 379.375 56.6875 C379.81368408 55.72384521 379.81368408 55.72384521 380.26123047 54.74072266 C397.85264182 16.54994556 430.24133348 -14.19994265 469.63623047 -29.171875 C475.1444637 -31.15741455 480.72054629 -32.79964073 486.375 -34.3125 C487.13603027 -34.52422852 487.89706055 -34.73595703 488.68115234 -34.95410156 C512.02330771 -41.20973972 540.17208579 -40.95200986 563.375 -34.3125 C564.17679688 -34.09819336 564.97859375 -33.88388672 565.8046875 -33.66308594 C602.15797282 -23.93773274 635.20856094 -5.93907312 664.375 17.6875 C664.95008301 18.15220703 665.52516602 18.61691406 666.11767578 19.09570312 C684.26981755 33.87255646 700.92747775 50.22303622 715.04101562 68.92089844 C715.92533722 70.09200954 716.81461989 71.25939205 717.70898438 72.42285156 C737.7617318 98.5206973 753.02893136 127.85794905 764.375 158.6875 C764.6627832 159.45191406 764.95056641 160.21632813 765.24707031 161.00390625 C775.30742057 187.94728572 780.15026245 216.22852852 783.375 244.6875 C783.46457977 245.4423468 783.55415955 246.1971936 783.64645386 246.97491455 C784.37323872 253.51248145 784.55146367 259.98789148 784.578125 266.5625 C784.58382507 267.68527344 784.58952515 268.80804687 784.59539795 269.96484375 C784.60480237 272.33820672 784.61136368 274.71158249 784.61523438 277.08496094 C784.62482243 280.62199506 784.65584108 284.15841723 784.6875 287.6953125 C784.79632227 310.97809701 782.14878477 333.36521072 776.97167969 356.05126953 C776.43922939 358.40372383 775.93590623 360.75963764 775.4453125 363.12109375 C761.19884621 429.98027595 720.35045028 492.73599216 669.375 537.6875 C668.87210449 538.13512695 668.36920898 538.58275391 667.85107422 539.04394531 C616.80892094 584.26448951 545.49021961 617.48257556 476.875 621.25 C472.51432328 621.46572198 472.51432328 621.46572198 468.22607422 622.19458008 C464.35741467 622.86342951 460.58282912 622.83020229 456.6640625 622.8203125 C455.81887054 622.82126923 454.97367859 622.82222595 454.10287476 622.82321167 C452.31256028 622.82389111 450.52224331 622.82205331 448.73193359 622.81787109 C446.04388601 622.81258628 443.35601069 622.81778921 440.66796875 622.82421875 C358.82502535 622.86543036 281.90331563 590.5967414 222.1875 535.28125 C218.29859001 531.69481079 214.34369825 528.18516588 210.375 524.6875 C206.95509934 526.15728472 204.79444376 528.05816025 202.21484375 530.72265625 C201.4269043 531.52759521 200.63896484 532.33253418 199.82714844 533.16186523 C198.99731445 534.01594971 198.16748047 534.87003418 197.3125 535.75 C190.6061737 542.5502754 183.93998763 548.85570118 176.375 554.6875 C175.23926914 555.6201554 174.10667042 556.55663285 172.9765625 557.49609375 C139.52604901 585.14964616 96.79871075 605.51931104 54.375 614.6875 C53.43366211 614.89568359 52.49232422 615.10386719 51.52246094 615.31835938 C17.27888035 622.76784006 -18.29087506 625.45504645 -53.15429688 620.99511719 C-55.75100446 620.6718117 -58.3501041 620.40024615 -60.953125 620.1328125 C-99.57472564 615.92528914 -138.39315561 603.94436613 -172.6953125 585.69873047 C-174.77100593 584.61098728 -176.86705727 583.57171479 -178.96875 582.53515625 C-196.94465516 573.54624984 -213.89968474 562.19461121 -229.625 549.6875 C-230.54925781 548.95402344 -231.47351563 548.22054687 -232.42578125 547.46484375 C-237.87439268 543.07128847 -243.13415317 538.50575683 -248.3046875 533.7890625 C-250.31897731 531.96467206 -252.36648614 530.19656198 -254.4375 528.4375 C-258.16638907 525.18609063 -261.68240463 521.73862077 -265.1875 518.25 C-265.98281128 517.46157715 -265.98281128 517.46157715 -266.79418945 516.65722656 C-317.483031 465.77315761 -348.06769986 398.06232614 -358.875 327.6875 C-359.0385498 326.62619873 -359.20209961 325.56489746 -359.37060547 324.47143555 C-365.42960058 282.63721049 -362.11254091 239.65857218 -352.625 198.6875 C-352.38910156 197.66140625 -352.15320313 196.6353125 -351.91015625 195.578125 C-343.18178604 158.29762852 -327.22247944 122.31939555 -305.625 90.6875 C-305.1594873 90.00558594 -304.69397461 89.32367187 -304.21435547 88.62109375 C-298.05384782 79.65014286 -291.68311038 70.97988096 -284.625 62.6875 C-283.79355469 61.67171875 -282.96210937 60.6559375 -282.10546875 59.609375 C-270.06921423 45.03656335 -256.62546842 31.21136066 -241.625 19.6875 C-239.9148568 18.2521536 -238.20660544 16.81455094 -236.5 15.375 C-208.47449694 -7.42540927 -174.96988159 -25.7183792 -139.52734375 -33.453125 C-136.88111675 -34.03587769 -134.29046337 -34.65847546 -131.67578125 -35.3515625 C-84.83801744 -47.15356257 -35.767622 -30.50247566 0 0 Z " fill="#1B4EF8" transform="translate(812.625,733.3125)"/>
</svg>